/* XPM */
static char *result[] = {
/* columns rows colors chars-per-pixel */
"64 64 118 2 ",
"   c #434B00",
".  c #4A5200",
"X  c #4B5300",
"o  c #4C5000",
"O  c #4D5100",
"+  c #4E5200",
"@  c #4F5300",
"#  c #4C5400",
"$  c #4D5500",
"%  c #4E5700",
"&  c #505400",
"*  c #515500",
"=  c #525600",
"-  c #535700",
";  c #505405",
":  c #535705",
">  c #525606",
",  c #525B00",
"<  c #545800",
"1  c #545900",
"2  c #555900",
"3  c #555A00",
"4  c #565A00",
"5  c #575B00",
"6  c #565A03",
"7  c #575C00",
"8  c #555E00",
"9  c #545904",
"0  c #585C00",
"q  c #585D00",
"w  c #595D00",
"e  c #5A5E00",
"r  c #5B5F00",
"t  c #595D02",
"y  c #585D03",
"u  c #5A5E02",
"i  c #555908",
"p  c #596200",
"a  c #596300",
"s  c #5A6300",
"d  c #5C6000",
"f  c #5C6100",
"g  c #5D6100",
"h  c #5D6200",
"j  c #5E6200",
"k  c #5E6300",
"l  c #5F6300",
"z  c #5C6102",
"x  c #5C6500",
"c  c #5F6400",
"v  c #5D6106",
"b  c #5E6800",
"n  c #5F6900",
"m  c #606400",
"M  c #616500",
"N  c #616600",
"B  c #626600",
"V  c #626700",
"C  c #636700",
"Z  c #6D6500",
"A  c #6E6600",
"S  c #636800",
"D  c #616B00",
"F  c #626B00",
"G  c #646800",
"H  c #646900",
"J  c #656900",
"K  c #656A00",
"L  c #666A00",
"P  c #666B00",
"I  c #676B00",
"U  c #626C00",
"Y  c #636D00",
"T  c #676C00",
"R  c #656907",
"E  c #686D00",
"W  c #696D00",
"Q  c #696E00",
"!  c #6A6F00",
"~  c #6B6F00",
"^  c #696E05",
"/  c #696D06",
"(  c #786C00",
")  c #6B7000",
"_  c #6C7000",
"`  c #6C7100",
"'  c #6D7200",
"]  c #6E7300",
"[  c #6E7303",
"{  c #6F7400",
"}  c #707500",
"|  c #707600",
" . c #717600",
".. c #727700",
"X. c #727603",
"o. c #7E7000",
"O. c #7F7000",
"+. c #727800",
"@. c #747A00",
"#. c #757B00",
"$. c #767C00",
"%. c #8D7900",
"&. c #7A8000",
"*. c #7D8300",
"=. c #AE8D00",
"-. c #AF8E00",
";. c #CFA300",
":. c #D2A600",
">. c #DFAE00",
",. c #E0AF00",
"<. c #E1B000",
"1. c #EDB800",
"2. c #EFB800",
"3. c #EEB900",
"4. c #EFBA00",
"5. c #F0B900",
"6. c #F9BF00",
"7. c #FFCE00",
/* pixels */
"| | | | | | | | | | | | | | | | | | | | | | | | | | | | | | | | | | | | | | | | | | | | | | | | | | | | | | | | | | | | | | | | ",
"| | | | | | | | | | | | | | | | | | | | | | | | | | | | | | | | | | | | | | | | | | | | | | | | | | | | | | | | | | | | | | | | ",
"| | | | | | | | | | | | | | | | | | | | | | | | | | | | | | | | | | | | | | | | | | | | | | | | | | | | | | | | | | | | | | | | ",
"| | | | | | | | | | | | | | | | | | | | | | | | | | | | | | | | | | | | { ' Q H l w - + ;.7.7.7.7.7.7.7.3.O.* 4 d B T _ ] } | | ",
"| | | | | | | | | | | | | | | | | | | | | | | | | | | | | | | | | | | } ] ! K c w = A >.7.7.7.7.7.7.7.7.7.7.%.& 4 f S W ' { | | ",
"| | | | | | | | | | | | | | | | | | | | | | | | | | | | | | | | | | | { ` T N e - Z 6.7.7.7.7.7.7.7.7.7.7.7.7.=.& 7 l L ) ] | | ",
"| | | | | | | | | | | | | | | | | | | | | | | | | | | | | | | | | | } ] ! H g 3 + >.7.7.7.7.7.7.7.7.7.7.7.7.7.7.o.- r C Q ' | | ",
"| | | | | | | | | | | | | | | | | | | | | | | | | | | | | | | | | | } ' W B e = :.7.7.7.7.7.7.7.7.7.7.7.7.7.7.7.7.& 0 M T ` | | ",
"| | | | | | | | | | | | | | | | | | | | | | | | | | | | | | | | | | { ` T m 5 @ 7.7.7.7.7.7.7.7.7.7.7.7.7.7.7.7.7.+ 4 l I ` | | ",
"| | | | | | | | | | | | | | | | | | | | | | | | | | | | | | | | | | { _ X.^ u O 7.7.7.7.7.7.7.7.7.7.7.7.7.7.7.7.7.O 1 k L _ | | ",
"| | | | | | | | | | | | | | | | | | | | | | | | | | | | | | | | | | { ) L / t ; 7.7.7.7.7.7.7.7.7.7.7.7.7.7.7.7.7.o < j K ) | | ",
"| | | | | | | | | | | | | | | | | | | | | | | | | | | | | | | | | | @.$.K , y ; 7.7.7.7.7.7.7.7.7.7.7.7.7.7.7.7.7.o < j K ) | | ",
"| | | | | | | | | | | | | | | | | | | | | | | | | | | | | | | | | | { $.) C . ; 7.7.7.7.7.7.7.7.7.7.7.7.7.7.7.7.7.o < j K ) | | ",
"| | | | | | | | | | | | | | | | | | | | | | | | | | | | | | | | | | { b ) G 2   7.7.7.7.7.7.7.7.7.7.7.7.7.7.7.7.7.o 1 k L ) | | ",
"| | | | | | | | | | | | | | | | | | | | | | | | | | | | | | | | | | { ` s H 4 + 7.7.7.7.7.7.7.7.7.7.7.7.7.7.7.7.7.O 3 l P _ | | ",
"| | | | | | | | | | | | | | | | | | | | | | | | | | | | | | | | | | } ' E 8 q 9 3.7.7.7.7.7.7.7.7.7.7.7.7.7.7.7.7.@ 5 m T ` | | ",
"| | | | | | | | | | | | | | | | | | | | | | | | | | | | | | | | | | } ] Q G d v ( 7.7.7.7.7.7.7.7.7.7.7.7.7.7.7.,.= e B E ' | | ",
"| | | | | | | | | | | | | | | | | | | | | | | | | | | | | | | | | | | ] ) I c $ * %.7.7.7.7.7.7.7.7.7.7.7.7.7.1.+ 3 g H ! ] | | ",
"| | | | | | | | | | | | | | | | | | | | | | | | | | | | | | | | | | | { ' Q G h 4 & -.7.7.7.7.7.7.7.7.7.7.7.2.O - e N T ` { | | ",
"| | | | | | | | | | | | | | | | | | | | | | | | | | | | | | | | | | | } { ` E V d 4 & o.7.7.7.7.7.7.7.7.7.,.+ - e m K ! ] } | | ",
"| | | | | | | | | | | | | | | | | | | | | | | | | | | | | | | | | | | | } ] ) T B f 7 - & + O o o o o O @ = 3 e m J Q ' { | | | ",
"| | | | | | | } } { { { { { { { } } | | | | | | | | | | | | | | | | | | | } ] ) T S l r 0 4 1 < < < 1 3 5 e g N K Q ' { } | | | ",
"| | | | | } { ] ' ` _ ) ) ) _ ` ' ] ] { } | | | | | | | | | | | | | | | | | { ] _ W L C M l k j j j k l m B H T ! ' { } | | | | ",
"| | | } { ] ` ! W T P L K L P T E Q ) ' { } | | | | | | | | | | | | | | | | | } ] ' ) Q T I L K K K L P T E ! ` ] { } | | | | | ",
"| | } { ' ! T H B m l k j j l c N G I Q ` ] } | | | | | | | | | | | | | | | | | } { ] ' ` ` _ ) ) ) ) _ ` ' ] { } | | | | | | | ",
"| } { ' Q K N g e 5 3 1 < < 2 4 q d c G E ) ] { | | | | | | | | | | | | | | | | | | } } { { { { { { { { { } } | | | | | | | | | ",
"} { ' Q H c e 3 = @ O o o o O + & < 0 h V T ) ] } | | | | | | | | | | | | | | | | | | | | | | | | | | | | | | | | | | | | | | | ",
"{ ' Q H l w - + ;.7.7.7.7.7.7.7.3.O.* 4 d B T _ ] } | | | | | | | | | | | | | | | | | | | | | | | | | | | | | | | | | | | | | | ",
"] ! K c w = A >.7.7.7.7.7.7.7.7.7.7.%.& 4 f S W ' { | | | | | | | | | | | | | | | | | | | | | | | | | | | | | | | | | | | | | | ",
"` T N e - Z 6.7.7.7.7.7.7.7.7.7.7.7.7.=.& 7 l L ) ] } | | | | | | | | | | | | | | | | | | | | | | | | | | | | | | | | | | | | | ",
"! H g 3 + >.7.7.7.7.7.7.7.7.7.7.7.7.7.7.o.- r C Q ' } | | | | | | | | | | | | | | | | | | | | | | | | | | | | | | | | | | | | | ",
"W B e = ;.7.7.7.7.7.7.7.7.7.7.7.7.7.7.7.7.& 0 M T ` { | | | | | | | | | | | | | | | | | | | | | | | | | | | | | | | | | | | | | ",
"T m 5 @ 7.7.7.7.7.7.7.7.7.7.7.7.7.7.7.7.7.+ 4 l I ` { | | | | | | | | | | | | | | | | | | | | | | | | | | | | | | | | | | | | | ",
"P l 3 O 7.7.7.7.7.7.7.7.7.7.7.7.7.7.7.7.7.O 1 k L _ { | | | | | | | | | | | | | | | | | | | | | | | | | | | | | | | | | | | | | ",
"L k 1 o 7.7.7.7.7.7.7.7.7.7.7.7.7.7.7.7.7.o < j K ) { | | | | | | | | | | | | | | | | | | | | | | | | | | | | | | | | | | | | | ",
"K j < o 7.7.7.7.7.7.7.7.7.7.7.7.7.7.7.7.7.o < j K ) { | | | | | | | | | | | | | | | | | | | | | | | | | | | | | | | | | | | | | ",
"L j < o 7.7.7.7.7.7.7.7.7.7.7.7.7.7.7.7.7.o < j K ) { | | | | | | | | | | | | | | | | | | | | | | | | | | | | | | | | | | | | | ",
"P l 2 O 7.7.7.7.7.7.7.7.7.7.7.7.7.7.7.7.7.o 1 k L ) { | | | | | | | | | | | | | | | | | | | | | | | | | | | | | | | | | | | | | ",
"T c 4 + 7.7.7.7.7.7.7.7.7.7.7.7.7.7.7.7.7.O 3 l P _ { | | | | | | } } { { { { { { { } } | | | | | | | | | | | | | | | | | | | | ",
"E N q & 1.7.7.7.7.7.7.7.7.7.7.7.7.7.7.7.7.@ 5 m T ` { | | | | } { ] ' ` _ ) ) ) _ ` ' ] ] { } | | | | | | | | | | | | | | | | | ",
"Q G d < O.7.7.7.7.7.7.7.7.7.7.7.7.7.7.7.,.= e B E ' } | | } { ] ` ! W T P L K L P T E Q ) ' { } | | | | | | | | | *.| | | | | | ",
") I c 0 * %.7.7.7.7.7.7.7.7.7.7.7.7.7.1.+ 3 g H ! ] } | } { ' ! T H B m l k j j l c N G I Q ` ] } | | | *.*.$.| | $.$.| | | | | ",
"' Q G h 4 & -.7.7.7.7.7.7.7.7.7.7.7.2.O - e N T ` { } } { ' Q K N g e 5 3 1 < < 2 4 q d c G E ) ] { | | | *.$.$.| Y $.| | *.| | ",
"{ ` E V d 4 & o.7.7.7.7.7.7.7.7.7.,.+ - e m K ! ] } } { ' Q H c e 3 = @ O o o o O + & < 0 h V T ) ] } | | Y $.$.$.Y | $.$.Y | | ",
"} ] ) T B f 7 - & + O i o o o O @ = 3 e m J Q ' { } { ' Q H l w - + ;.7.7.7.7.7.7.7.3.O.* 4 d B T _ ] } *.$.Y $.$.| | $.$.Y | | ",
"| } ] ) T S ^ R z 4 1 y y < 1 3 5 e g N K Q ' { } } ] ! K c w = A >.7.7.7.7.7.7.7.7.7.7.%.& 4 f S W ' { Y $.$.Y $.| | Y Y | | | ",
"| | { ] _ W L [ L G k , C j k ^ m B H T ! ' { } | { ` T N e - Z 6.7.7.7.7.7.7.7.7.7.7.7.7.=.& 7 l L ) ] } Y $.Y Y | | | | | | | ",
"| | | } ] ' ) x ' ` ) p K ~ ) a T E ! ` ] { } | } ] ! H g 3 + >.7.7.7.7.7.7.7.7.7.7.7.7.7.7.o.- r C Q ' } | | | | | | | | | | | ",
"| | | | } { &.+.n .. .) )  . .b ` ' ] { } | | | } ' W B e = ;.7.7.7.7.7.7.7.7.7.7.7.7.7.7.7.7.& 0 M T ` { | | | | | | | | | | | ",
"| | | | | | U #.@.F @.{ { D D { { } } | | | | | { ` T m 5 @ 7.7.7.7.7.7.7.7.7.7.7.7.7.7.7.7.7.+ 4 l I ` { | | | | | | | | | | | ",
"| | | | | | | Y $.Y Y | | | | | | | | | | | | | { _ P l 3 O 7.7.7.7.7.7.7.7.7.7.7.7.7.7.7.7.7.O 1 k L _ { | | | | | | | | | | | ",
"| | | | | | | | | | | | | | | | | | | | | | | | { ) L k 1 o 7.7.7.7.7.7.7.7.7.7.7.7.7.7.7.7.7.o < j K ) { | | | | | | | | | | | ",
"| | | | | | | | | | | | | | | | | | | | | | | | { ) K j < o 7.7.7.7.7.7.7.7.7.7.7.7.7.7.7.7.7.o < j K ) { | | | | | | | | | | | ",
"| | | | | | | | | | | | | | | | | | | | | | | | { ) L j < o 7.7.7.7.7.7.7.7.7.7.7.7.7.7.7.7.7.o < j K ) { | | | | | | | | | | | ",
"| | | | | | | | | | | | | | | | | | | | | | | | { _ P l 2 O 7.7.7.7.7.7.7.7.7.7.7.7.7.7.7.7.7.o 1 k L ) { | | | | | | | | | | | ",
"| | | | | | | | | | | | | | | | | | | | | | | | { ` T c 4 + 7.7.7.7.7.7.7.7.7.7.7.7.7.7.7.7.7.O 3 l P _ { | | | | | | | | | | | ",
"| | | | | | | | | | | | | | | | | | | | | | | | } ' E N q & 1.7.7.7.7.7.7.7.7.7.7.7.7.7.7.7.7.@ 5 m T ` { | | | | | | | | | | | ",
"| | | | | | | | | | | | | | | | | | | | | | | | } ] Q G d < O.7.7.7.7.7.7.7.7.7.7.7.7.7.7.7.,.= e B E ' } | | | | | | | | | | | ",
"| | | | | | | | | | | | | | | | | | | | | | | | | ] ) I c 0 * %.7.7.7.7.7.7.7.7.7.7.7.7.7.5.+ 3 g H ! ] } | | | | | | | | | | | ",
"| | | | | | | | | | | | | | | | | | | | | | | | | { ' Q G h 4 & -.7.7.7.7.7.7.7.7.7.7.7.4.O - e N T ` { | | | | | | | | | | | | ",
"| | | | | | | | | | | | | | | | | | | | | | | | | } { ` E V d 4 & o.7.7.7.7.7.7.7.7.7.<.> - e m K ! ] } | | | | | | | | | | | | ",
"| | | | | | | | | | | | | | | | | | | | | | | | | | } ] ) T B f 7 - & + O o o o o O : 6 X e m J Q ' { | | | | | | | | | | | | | ",
"| | | | | | | | | | | | | | | | | | | | | | | | | | | } ] ) T S l r 0 4 1 < < < 1 3 # % g N K Q ' { } | | | | | | | | | | | | | ",
"| | | | | | | | | | | | | | | | | | | | | | | | | | | | { ] _ W L C M l k j j j k l m B H T ! ' { } | | | | | | | | | | | | | | "
};
