/* XPM */
static char *result[] = {
/* columns rows colors chars-per-pixel */
"64 64 180 2 ",
"   c #3B3E03",
".  c #3B3F05",
"X  c #3F4303",
"o  c #3C4004",
"O  c #3D4104",
"+  c #434702",
"@  c #424603",
"#  c #404404",
"$  c #454801",
"%  c #454901",
"&  c #474B01",
"*  c #454902",
"=  c #464A02",
"-  c #474A02",
";  c #494D00",
":  c #484C01",
">  c #4A4E00",
",  c #4B4F00",
"<  c #4A4E01",
"1  c #4A4D02",
"2  c #4A5200",
"3  c #4C5000",
"4  c #4D5100",
"5  c #4E5200",
"6  c #4F5300",
"7  c #4B5400",
"8  c #505400",
"9  c #515500",
"0  c #525600",
"q  c #525700",
"w  c #535700",
"e  c #515900",
"r  c #515A00",
"t  c #545800",
"y  c #545900",
"u  c #555900",
"i  c #555A00",
"p  c #565A00",
"a  c #575B00",
"s  c #535C00",
"d  c #575C00",
"f  c #555E00",
"g  c #545804",
"h  c #545904",
"j  c #585C00",
"k  c #585D00",
"l  c #595D00",
"z  c #5A5E00",
"x  c #5B5F00",
"c  c #5A5E02",
"v  c #5B5F08",
"b  c #5A5E09",
"n  c #615700",
"m  c #625B00",
"M  c #635C00",
"N  c #566000",
"B  c #5B6000",
"V  c #586200",
"C  c #596200",
"Z  c #5C6000",
"A  c #5C6100",
"S  c #5D6100",
"D  c #5D6200",
"F  c #5E6200",
"G  c #5E6300",
"H  c #5F6300",
"J  c #5C6102",
"K  c #5B6400",
"L  c #5C6500",
"P  c #5F6400",
"I  c #5D6700",
"U  c #5F6406",
"Y  c #5F6900",
"T  c #5E6208",
"R  c #606400",
"E  c #616500",
"W  c #616600",
"Q  c #626600",
"!  c #626700",
"~  c #636700",
"^  c #6D6500",
"/  c #6E6600",
"(  c #606900",
")  c #636800",
"_  c #606A00",
"`  c #616B00",
"'  c #626B00",
"]  c #646800",
"[  c #646900",
"{  c #656900",
"}  c #656A00",
"|  c #666A00",
" . c #666B00",
".. c #676B00",
"X. c #626C00",
"o. c #636D00",
"O. c #676C00",
"+. c #646805",
"@. c #676C04",
"#. c #686D00",
"$. c #696D00",
"%. c #696E00",
"&. c #6A6E00",
"*. c #6A6F00",
"=. c #6B6F00",
"-. c #6B6F04",
";. c #726200",
":. c #756500",
">. c #786A00",
",. c #7B6D00",
"<. c #6B7000",
"1. c #6C7000",
"2. c #6C7100",
"3. c #6D7200",
"4. c #6E7300",
"5. c #6F7400",
"6. c #6F7402",
"7. c #6E7204",
"8. c #707500",
"9. c #707600",
"0. c #717600",
"q. c #727700",
"w. c #737700",
"e. c #7E7000",
"r. c #7F7000",
"t. c #727800",
"y. c #747800",
"u. c #747900",
"i. c #747A00",
"p. c #757B00",
"a. c #767C00",
"s. c #817300",
"d. c #827300",
"f. c #887500",
"g. c #8D7900",
"h. c #937E00",
"j. c #9C7F00",
"k. c #7B8100",
"l. c #7D8300",
"z. c #A68700",
"x. c #AE8D00",
"c. c #AF8E00",
"v. c #B08F00",
"b. c #BE9200",
"n. c #C19800",
"m. c #C99E00",
"M. c #CFA300",
"N. c #D1A200",
"B. c #D6A700",
"V. c #DFAD00",
"C. c #DFAE00",
"Z. c #E3AB00",
"A. c #E0AF00",
"S. c #E8AF00",
"D. c #EDB300",
"F. c #E9B400",
"G. c #EEB400",
"H. c #EEB700",
"J. c #EFB700",
"K. c #EDB800",
"L. c #EFB800",
"P. c #EEB900",
"I. c #F4B900",
"U. c #F6B900",
"Y. c #F8BC00",
"T. c #F9BF00",
"R. c #FDBD00",
"E. c #FEBE00",
"W. c #FFC100",
"Q. c #FFC300",
"!. c #FFC400",
"~. c #FFC500",
"^. c #FFC600",
"/. c #FFC700",
"(. c #FFC900",
"). c #FFCA00",
"_. c #FFCB00",
"`. c #FFCC00",
"'. c #FFCD00",
"]. c #FFCE00",
/* pixels */
"9.9.9.9.9.9.9.9.9.9.9.9.9.9.9.9.9.9.9.9.9.9.9.9.9.9.9.9.9.9.9.9.9.9.9.9.9.9.9.9.9.9.9.9.9.9.9.9.9.9.9.9.9.9.9.9.9.9.9.9.9.9.9.9.",
"9.9.9.9.9.9.9.9.9.9.9.9.9.9.9.9.9.9.9.9.9.9.9.9.9.9.9.9.9.9.9.9.9.9.9.9.9.9.9.9.9.9.9.9.9.9.9.9.9.9.9.9.9.9.9.9.9.9.9.9.9.9.9.9.",
"9.9.9.9.9.9.9.9.9.9.9.9.9.9.9.9.9.9.9.9.9.9.9.9.9.9.9.9.9.9.9.9.9.9.9.9.9.9.9.9.9.9.9.9.9.9.9.9.9.9.9.9.9.9.9.9.9.9.9.9.9.9.9.9.",
"9.9.9.9.9.9.9.9.9.9.9.9.9.9.9.9.9.9.9.9.9.9.9.9.9.9.9.9.9.9.9.9.9.9.9.9.9.9.9.9.9.9.9.9.9.9.9.9.9.9.9.9.9.9.9.9.9.9.9.9.9.9.9.9.",
"9.9.9.9.9.9.9.9.9.9.9.9.9.9.9.9.9.9.9.9.9.9.9.9.9.9.9.9.9.9.9.9.9.9.9.9.9.9.9.9.9.9.9.9.9.9.9.9.9.9.9.9.9.9.9.9.9.9.9.9.9.9.9.9.",
"9.9.9.9.9.9.9.9.9.9.9.9.9.9.9.9.9.9.9.9.9.9.9.9.8.8.5.5.5.5.5.5.5.8.8.9.9.9.9.9.9.9.9.9.9.9.9.9.9.9.9.9.9.9.9.9.9.9.9.9.9.9.9.9.",
"9.9.9.9.9.9.9.9.9.9.9.9.9.9.9.9.9.9.9.9.9.9.8.5.4.3.2.1.<.<.<.1.2.3.4.4.5.8.9.9.9.9.9.9.9.9.9.9.9.9.9.9.9.9.9.9.9.9.9.9.9.9.9.9.",
"9.9.9.9.9.9.9.9.9.9.9.9.9.9.9.9.9.9.9.9.8.5.4.2.*.$.O. .| } |  .O.#.%.<.3.5.8.9.l.9.9.9.9.9.9.9.9.9.9.9.9.9.9.9.9.9.9.9.9.9.9.9.",
"9.9.9.9.9.9.9.9.9.9.9.9.9.9.9.9.9.9.9.8.5.3.*.O.[ Q R H G F F H P W ] ..%.2.4.8.a.a.9.9.9.9.9.9.9.9.9.9.9.9.9.9.9.9.9.9.9.9.9.9.",
"9.9.9.9.9.9.9.9.9.9.9.9.9.9.9.9.9.9.8.5.3.%.} W S z a i y t t u p k Z P 6.y.0.4.' a.9.9.9.9.9.9.9.9.9.9.9.9.9.9.9.9.9.9.9.9.9.9.",
"9.9.9.9.9.9.9.9.9.9.9.9.9.9.9.9.9.8.5.3.%.[ P z i 0 6 4 3 3 3 4 5 8 t j D 7.3.0._ X.9.l.l.a.9.9.9.9.9.9.9.9.9.9.9.9.9.9.9.9.9.9.",
"9.9.9.9.9.9.9.9.9.9.9.9.9.9.9.9.9.5.3.%.[ H l w 5 M.].].].].].].].P.d.b p e O.3.1.` p.a.l.9.9.9.9.9.9.9.9.9.9.9.9.9.9.9.9.9.9.9.",
"9.9.9.9.9.9.9.9.9.9.9.9.9.9.9.9.8.4.*.} P l 0 / C.].].].].].].].].].].h.g c r #.$.w.i.a.9.9.9.9.9.9.9.9.9.9.9.9.9.9.9.9.9.9.9.9.",
"9.9.9.9.9.9.9.9.9.9.9.9.9.9.9.9.5.2.O.W z w ^ T.].].].].].].].].].].].].v.h d s C 8.u.X.9.9.9.9.9.9.9.9.9.9.9.9.9.9.9.9.9.9.9.9.",
"9.9.9.9.9.9.9.9.9.9.9.9.9.9.9.8.4.*.[ S i 5 C.].].].].].].].].].].].].].].s.w x N L ( 8.9.9.9.9.9.9.9.9.9.9.9.9.9.9.9.9.9.9.9.9.",
"9.9.9.9.9.9.9.9.9.9.9.9.9.9.9.8.3.$.Q z 0 M.].].].].].].].].].].].].].].].].8 J | O.2.5.9.9.9.9.9.9.9.9.9.9.9.9.9.9.9.9.9.9.9.9.",
"9.9.9.9.9.9.9.9.9.9.9.9.9.9.9.5.2.O.R a 6 ].].].].].].].].].].].].].].].].].5 U s ..2.5.9.9.9.9.9.9.9.9.9.9.9.9.9.9.9.9.9.9.9.9.",
"9.9.9.9.9.9.9.9.9.9.9.9.9.9.9.5.1. .H i 4 ].].].].].].].].].].].].].].].].].4 2 G | 1.5.9.9.9.9.9.9.9.9.9.9.9.9.9.9.9.9.9.9.9.9.",
"9.9.9.9.9.9.9.9.9.9.9.9.9.9.9.5.<.| G y 3 ].].].].].].].].].].].].].].].].].3 t F } <.5.9.9.9.9.9.9.9.9.9.9.9.9.9.9.9.9.9.9.9.9.",
"9.9.9.9.9.9.9.9.9.9.9.9.9.9.9.5.<.} F t 3 ].].].].].].].].].].].].].].].].].3 t F } <.5.9.9.9.9.9.9.9.9.9.9.9.9.9.9.9.9.9.9.9.9.",
"9.9.9.9.9.9.9.9.9.9.9.9.9.9.9.5.<.| F t 3 ].].].].].].].].].].].].].].].].].3 t F } <.5.9.9.9.9.9.9.9.9.9.9.9.9.9.9.9.9.9.9.9.9.",
"9.9.9.9.9.9.9.9.9.9.9.9.9.9.9.5.1. .H u 4 ].].].].].].].].].].].].].].].].].3 y G | <.5.9.9.9.9.9.9.9.9.9.9.9.9.9.9.9.9.9.9.9.9.",
"9.9.9.9.9.9.9.9.9.9.9.9.9.9.9.5.2.O.P p 5 ].].].].].].].].].].].].].].].].].4 y D [ %.3.5.5.5.8.8.9.9.9.9.9.9.9.9.9.9.9.9.9.9.9.",
"9.9.9.9.9.9.9.9.9.9.9.9.9.9.9.8.3.#.W k 8 K.].].].].].].].].].].].].].].].].3 t Z Q O.%.<.1.2.3.4.4.5.8.9.9.9.9.9.9.9.9.9.9.9.9.",
"9.9.9.9.9.9.9.9.9.9.9.9.9.9.9.8.4.%.] Z t r.].].].].].].].].].].].].].].].C.4 w l F ! [ |  .O.#.%.<.3.5.8.9.9.9.9.9.9.9.9.9.9.9.",
"9.9.9.9.9.9.9.9.9.9.9.9.9.9.9.9.4.<...P j 9 g.].].].].].].].].].].].].].J.& 3 9 u l B S F H P W ] ..%.2.4.8.9.9.9.9.9.9.9.9.9.9.",
"9.9.9.9.9.9.9.9.9.9.9.9.9.9.9.9.5.3.%.] D p 8 c.].].].].].].].].].].].H.% & > 4 8 0 w t t u p k Z P ] #.<.4.5.9.9.9.9.9.9.9.9.9.",
"9.9.9.9.9.9.9.9.9.9.9.9.9.9.9.9.8.5.2.#.! Z p 8 e.].].].].].].].].].V.* = & : ; < , 3 3 3 4 5 8 t j D ! O.<.4.8.9.9.9.9.9.9.9.9.",
"9.9.9.9.9.9.9.9.9.9.9.9.9.9.9.9.9.8.4.<.O.Q A d w 8 5 4 3 3 3 , , 1 : & - = * n.^.).'.].].].].P.r.9 p Z Q O.1.4.8.9.9.9.9.9.9.9.",
"9.9.9.9.9.9.9.9.9.9.9.9.9.9.9.9.9.9.8.4.<.O.) H x j p y t t w 0 8 4 , ; = m N.~.).`.].].].].].].].g.8 p A ) $.3.5.9.9.9.9.9.9.9.",
"9.9.9.9.9.9.9.9.9.9.9.9.9.9.9.9.9.9.9.5.4.1.$.| ~ E H G F D Z z a 0 5 ; M F.^.).`.].].].].].].].].].x.8 d H | <.4.8.9.9.9.9.9.9.",
"9.9.9.9.9.9.9.9.9.9.9.9.9.9.9.9.9.9.9.8.5.3.<.%.O.} [ [ ] ] Q P z u 5 1 B./.).`.].].].].].].].].].].].e.w x ~ %.3.8.9.9.9.9.9.9.",
"9.9.9.9.9.9.9.9.9.9.9.9.9.9.9.9.9.9.8.5.4.2.<.%.O.O....... .[ E Z i 6 m.).`.'.].].].].].].].].].].].].].8 j E O.2.5.9.9.9.9.9.9.",
"9.9.9.9.9.9.9.9.9.9.9.9.9.9.9.9.8.5.4.2.*.$...} [ ] [ [ { [ ] R B t 4 _.'.'.].].].].].].].].].].].].].].5 p H ..2.5.9.9.9.9.9.9.",
"9.9.9.9.9.9.9.9.9.9.9.9.9.9.9.8.5.3.*.O.[ Q R H G F F H P R H S k 0 , `.'.].].].].].].].].].].].].].].].4 y G | 1.5.9.9.9.9.9.9.",
"9.9.9.9.9.9.9.9.9.9.9.9.9.9.8.5.3.%.} W S z a i y t t u p a a p w 4 ; (._.'.].].].].].].].].].].].].].].3 t F } <.5.9.9.9.9.9.9.",
"9.9.9.9.9.9.9.9.9.9.9.9.9.8.5.3.%.[ P z i 0 6 4 3 3 3 4 5 6 6 6 4 ; = Q.(.`.'.].].].].].].].].].].].].].3 t F } <.5.9.9.9.9.9.9.",
"9.9.9.9.9.9.9.9.9.9.9.9.9.5.3.%.[ H l w 5 M.].].].].].].].L.,.: & $ @ Y.!.(.`.].].].].].].].].].].].].].3 t F } <.5.9.9.9.9.9.9.",
"9.9.9.9.9.9.9.9.9.9.9.9.8.4.*.} P l 0 / C.].].].].].].].].].].f.+ # X G.R.~._.'.].].].].].].].].].].].].3 y G | <.5.9.9.9.9.9.9.",
"9.9.9.9.9.9.9.9.9.9.9.9.5.2.O.W z w ^ T.].].].].].].].].].].].].z.O o Z.I.W.(.`.].].].].].].].].].].].].4 i H  .1.5.9.9.9.9.9.9.",
"9.9.9.9.9.9.9.9.9.9.9.8.4.*.[ S i 5 C.].].].].].].].].].].].].].].;.  b.D.E.^.`.].].].].].].].].].].].].6 a R O.2.k.9.9.9.9.9.9.",
"9.9.9.9.9.9.9.9.9.9.9.8.3.$.Q z 0 M.].].].].].].].].].].].].].].].].. n S.Y.!._.].].].].].].].].].].].A.v +.O.#.3.p.a.9.9.9.9.9.",
"9.9.9.9.9.9.9.9.9.9.9.5.2.O.R a 6 ].].].].].].].].].].].].].].].].].o O :.U.~._.].].].].].].].].].].K.5 i @.&.5.4.X.a.9.9.l.9.9.",
"9.9.9.9.9.9.9.9.9.9.9.5.1. .H i 4 ].].].].].].].].].].].].].].].].].X # @ j.!.).].].].].].].].].].L.4 w z f 3.q.i.o.9.a.a.o.9.9.",
"9.9.9.9.9.9.9.9.9.9.9.k.<.| G y 3 ].].].].].].].].].].].].].].].].].@ $ & : >.).].].].].].].].].A.5 w z -.=.I t.p.9.9.a.a.o.9.9.",
"9.9.9.9.9.9.l.l.a.9.9.i.0.} F t 3 ].].].].].].].].].].].].].].].].].= ; 4 5 6 6 5 4 3 3 3 3 4 6 0 i z R V 5.t.` a.9.9.o.o.9.9.9.",
"9.9.9.9.9.9.9.l.a.a.9.` 0.| F T 3 ].].].].].].].].].].].].].].].].].; 4 q u p p p y t t t y i a z S W } %.Y i.X.o.9.9.9.9.9.9.9.",
"9.9.9.9.9.9.9.o.a.a.a.' 1.<.] 2 4 ].].].].].].].].].].].].].].].].].< 8 d B F H H G F F F G H R Q [ O.*.3.5.8.9.9.9.9.9.9.9.9.9.",
"9.9.9.9.9.9.l.a.o.a.a.5.2.2.[ 7 5 ].].].].].].].].].].].].].].].].].3 t B E [ | ..| } } } |  .O.#.*.2.4.5.8.9.9.9.9.9.9.9.9.9.9.",
"9.9.9.9.9.9.o.a.a.o.a.8.3.K f k 8 K.].].].].].].].].].].].].].].].].5 p H { $.<.2.1.<.<.<.<.1.2.3.4.5.8.9.9.9.9.9.9.9.9.9.9.9.9.",
"9.9.9.9.9.9.9.o.a.o.o.8.4.%.] Z t r.].].].].].].].].].].].].].].].A.0 z W O.2.4.5.5.5.5.5.5.5.5.8.8.9.9.9.9.9.9.9.9.9.9.9.9.9.9.",
"9.9.9.9.9.9.9.9.9.9.9.9.4.<...P j 9 g.].].].].].].].].].].].].].K.5 i S [ *.4.8.9.9.9.9.9.9.9.9.9.9.9.9.9.9.9.9.9.9.9.9.9.9.9.9.",
"9.9.9.9.9.9.9.9.9.9.9.9.5.3.%.] D p 8 c.].].].].].].].].].].].L.4 w z W O.2.5.9.9.9.9.9.9.9.9.9.9.9.9.9.9.9.9.9.9.9.9.9.9.9.9.9.",
"9.9.9.9.9.9.9.9.9.9.9.9.8.5.2.#.! Z p 8 e.].].].].].].].].].A.5 w z R } *.4.8.9.9.9.9.9.9.9.9.9.9.9.9.9.9.9.9.9.9.9.9.9.9.9.9.9.",
"9.9.9.9.9.9.9.9.9.9.9.9.9.8.4.<.O.Q A d w 8 5 4 3 3 3 3 4 6 0 i z R { %.3.5.9.9.9.9.9.9.9.9.9.9.9.9.9.9.9.9.9.9.9.9.9.9.9.9.9.9.",
"9.9.9.9.9.9.9.9.9.9.9.9.9.9.8.4.<.O.) H x j p y t t t y i a z S W } %.3.5.8.9.9.9.9.9.9.9.9.9.9.9.9.9.9.9.9.9.9.9.9.9.9.9.9.9.9.",
"9.9.9.9.9.9.9.9.9.9.9.9.9.9.9.5.4.1.$.| ~ E H G F F F G H R Q [ O.*.3.5.8.9.9.9.9.9.9.9.9.9.9.9.9.9.9.9.9.9.9.9.9.9.9.9.9.9.9.9.",
"9.9.9.9.9.9.9.9.9.9.9.9.9.9.9.9.8.4.3.<.%.O...| } } } |  .O.#.*.2.4.5.8.9.l.l.9.9.9.9.9.9.9.9.9.9.9.9.9.9.9.9.9.9.9.9.9.9.9.9.9.",
"9.9.9.9.9.9.9.9.9.9.9.9.9.9.9.9.9.8.5.4.3.2.2.1.<.<.<.<.1.2.3.4.5.8.9.9.9.9.l.a.a.9.9.9.l.l.9.9.9.9.9.9.9.9.9.9.9.9.9.9.9.9.9.9.",
"9.9.9.9.9.9.9.9.9.9.9.9.9.9.9.9.9.9.9.8.8.5.5.5.5.5.5.5.5.5.8.8.9.9.9.9.9.9.o.a.a.9.9.a.l.9.9.9.9.9.9.9.9.9.9.9.9.9.9.9.9.9.9.9.",
"9.9.9.9.9.9.9.9.9.9.9.9.9.9.9.9.9.9.9.9.9.9.9.9.9.9.9.9.9.9.9.9.9.9.9.9.9.9.9.o.o.9.a.a.a.9.9.9.9.9.9.9.9.9.9.9.9.9.9.9.9.9.9.9.",
"9.9.9.9.9.9.9.9.9.9.9.9.9.9.9.9.9.9.9.9.9.9.9.9.9.9.9.9.9.9.9.9.9.9.9.9.9.9.9.9.9.9.a.a.o.9.9.9.9.9.9.9.9.9.9.9.9.9.9.9.9.9.9.9.",
"9.9.9.9.9.9.9.9.9.9.9.9.9.9.9.9.9.9.9.9.9.9.9.9.9.9.9.9.9.9.9.9.9.9.9.9.9.9.9.9.9.9.o.o.9.9.9.9.9.9.9.9.9.9.9.9.9.9.9.9.9.9.9.9.",
"9.9.9.9.9.9.9.9.9.9.9.9.9.9.9.9.9.9.9.9.9.9.9.9.9.9.9.9.9.9.9.9.9.9.9.9.9.9.9.9.9.9.9.9.9.9.9.9.9.9.9.9.9.9.9.9.9.9.9.9.9.9.9.9."
};
