/* XPM */
static char *result[] = {
/* columns rows colors chars-per-pixel */
"64 64 102 2 ",
"   c #020202",
".  c #070708",
"X  c #0D0D0D",
"o  c #141414",
"O  c #1B1B1B",
"+  c #252525",
"@  c #2B2B23",
"#  c #2A2A2A",
"$  c #3A3A2C",
"%  c #313131",
"&  c #3A3A30",
"*  c #3E3E3E",
"=  c #4F530A",
"-  c #52560E",
";  c #5E6217",
":  c #636D00",
">  c #6E7300",
",  c #707600",
"<  c #767C00",
"1  c #73780D",
"2  c #686D11",
"3  c #6D7110",
"4  c #6E721A",
"5  c #73771D",
"6  c #444725",
"7  c #43442F",
"8  c #595D27",
"9  c #50532F",
"0  c #5A5D2C",
"q  c #454531",
"w  c #535634",
"e  c #545835",
"r  c #5E6136",
"t  c #5E6339",
"y  c #60632A",
"u  c #71752D",
"i  c #606535",
"p  c #666A35",
"a  c #696D36",
"s  c #646739",
"d  c #65693A",
"f  c #7A7E34",
"g  c #70743A",
"h  c gray26",
"j  c #5C5C5C",
"k  c #656565",
"l  c #6F6F6F",
"z  c #767676",
"x  c #7D8300",
"c  c #7A8800",
"v  c #7A8309",
"b  c #7E940F",
"n  c #7E9E08",
"m  c #7C8414",
"M  c #7E8D12",
"N  c #7F9316",
"B  c #76BD00",
"V  c #79BE00",
"C  c #7D8227",
"Z  c #7C8033",
"A  c #7DC100",
"S  c #88A517",
"D  c #879F29",
"F  c #889B30",
"G  c #89AC27",
"H  c #89A32D",
"J  c #8BBC2D",
"K  c #8CA434",
"L  c #8EA43B",
"P  c #8EA93A",
"I  c #91A239",
"U  c #8DB430",
"Y  c #8DBA31",
"T  c #8EB138",
"R  c #90B93A",
"E  c #83C301",
"W  c #8DC402",
"Q  c #8AC50A",
"!  c #8AC616",
"~  c #8BC51D",
"^  c #8CC721",
"/  c #8EC42D",
"(  c #90C233",
")  c #90C539",
"_  c #898D44",
"`  c #878B48",
"'  c #91A440",
"]  c #93AD42",
"[  c #8E8E8D",
"{  c #939393",
"}  c #9B9B9B",
"|  c #A3A3A3",
" . c gray68",
".. c #B2B2B2",
"X. c gray72",
"o. c #CDCDCD",
"O. c LightGray",
"+. c #DADADA",
"@. c #E5E5E5",
"#. c #EBEBEB",
"$. c #F5F5F5",
"%. c #FFFFFF",
/* pixels */
", , , , , , , , , , , , , , , , , , , , , , , , , , , , , , , , , , , , , , , , , , , , , , , , , , , , , , , , , , , , , , , , ",
", , , , , , , , , , , , , , , > , , , , , , , , , , , , , , , , , , , , , , , , , , , , , , , , , , , , , , , , , , , , , , , , ",
", , , , , , , , , , , , , , , , , , , , , , , , , , , , , , , , , , , , , , , , , , , , , , , > , , , , , , , , , , , , , , , , ",
", , , , , , , , , , , , , , , , , , , , , , , , , , > , , , , , , , , , , , , , , , , , , , < H M , , , , , , , , , , , , , , , ",
", , , , , , , , , , , , , , , , , , , , , , , , , , , , , , , , , , , , , , , , , , , , , , > H A D , , , , , , , , , , , , , , ",
", , , , , , , , , , , , , , , , , , , , , , , , , , , , , , , , , , , , , , , , , , , , , , , M E E G > , , , , , , , , , , , , ",
", , , , , , , , , , , , , , , , , , , , , , , , , , , , , , , , , , , , , , , , , , , , , , > K E ! V T , , , , , , , , , , , , ",
", , , , , , , , , , , , , , , , , , , , , , , , , , , , , , , , , , , , , , , , x , , , , , , ~ E ~ ~ B L > , , , , , , , , , , ",
", , , , , , , , , , , , , , , , , , , , , , , , , , , , , , , , , , , , , , , , < < , , , , U V ^ ~ ^ E A m , , , , , , , , , , ",
", , , , , , , , , , , , , , , , , , , , , , , , , , , , , , > , , , , , x x < , : < , , , P V ^ ~ ~ ~ ^ A R , , , , , , , , , , ",
", , , , , , , , , , , , , , , , , , , , , , , , , , , , , , , , , , , , , x < x : : , x I V Q ^ ! E ~ ~ ! E v > , , , , , , , , ",
", , , , , , , , , , , , , , , , , , , , , , , , , , , , , , , , , , < x > : < < , : < v E A ^ ! W ) ^ ! ~ A K , , , , , , , , , ",
", , , , , , , , , , , , , , , , , , , , , , , , , , , , , , , , , , , x < < : < , < < K V ^ ^ E n b ! ~ ~ E U , , , , , , , , , ",
", , , , , , , , , , , , , , , , , , , , , , , , , , , , , , , , , , , : < < , : : < < J E ^ E R < N A ^ ~ E / > , , , , , , , , ",
", , , , , , , , , , , , , , , , , , , , , , , , , , , , , , , , , , , , : x > , : : : ~ ! E E , > x ! A ~ ~ ! , , , , , , , , , ",
", , , , , , , , , , , , , , , , , , , , , , , , , , , , , , , , , , , , , : > < < , , ~ ! A L , , < C A E ~ ~ , , , , , , , , , ",
", , , , , , , , , , , , , , , , , , , , , , , , , , , , , , , , , , , , , , , x : , , Y V Q m , , , , ' V E Y , , , , , , , , , ",
", , , , , , , , , , , , , , , , , , , , , , , , , , , , , , , , , , , , , , , : , , , F V / , , , , , , ^ B F > , , , , , , , , ",
", , , , , , , , , , , , , , , , , , , , , , , , , , , , , , , , , , , , , , , , , , , , ( V , , , , , , A J , , , , , , , , , , ",
", , , > , , , , , , , , , , , , , , , , , , , , , , , , , , , , , , , , , , , , , , , > < W ] , , , , ] V v , , , , , , , , , , ",
", , , , , , , , , , , , , , , , , , , , , , , , , , > > , , , , , , , , > , , ; 2 > , , , , S x < , c N , , , , , , , , , , , , ",
", , , , , , , , , , , , , , , , , , , > , 4 y 9 7 & @ @ $ 7 9 y 4 , , , > < 7 X + = , ` 8 , , , , , < , , , , , , , , , , , , , ",
", , , , , , , , , , , , , , , , , , 1 8 $ O O O O O + + O O O o O $ 8 , > $ X + + O r # X q y 3 , , , , , , , , , > , , , , , , ",
", , , , , , , , , , , , , , , , , 0 # o O O + + O O o o o + + + + O o & $ o + + + + o O #     f , , , , , , , , , , , , , , , , ",
", , , , , , , , , , , , , , , u @ o O # + o     o + % % + . O # + + + O o # + + + + + + O @ _ , , , , , , , , , , , , , , , , , ",
", , , , , , , , , , , , > > d o O # + .   # l | o.@.$.$.@. .O O + + + + + + + + + + + + o r , , , , , , , , , , , , , , , , , , ",
", , , , , , , , , , , , > 6 o O # o   * | $.%.%.%.%.%.%.%.%.[   + + + + + + + + + + + + # o - , , , , , , , , , , , , , , , , , ",
", , , , , , , , , , , , w . + #   o { %.%.%.%.%.%.%.%.%.%.%.}   + + + + + + + + + + + + + + + 2 , , , , , , , , , , , , , , , , ",
", , , , , , , , , , > d . + #   % +.%.%.%.%.%.%.%.%.$.$.%.o.# o + + + + + + + + + + + + + # X 2 , , , , , , , , , , , , , , , , ",
", , , , , , , , , , Z   O #   * %.%.%.%.%.%.+.[ j * # % * O o # + + + + + + + + + + + + + . & 1 , , , , , , , , , , , , , , , , ",
", , , , , , , , , , + o %   % %.%.%.%.%.@.k o     X o o X O # + + + + + + + + + + + + # o @ < > , , , , , , , , , , , , , , , , ",
", , , , , , , , , d   # o X @.%.%.%.%. .o   O + + + + + + + + + + + + + + + + + + + + o & , , , , , , , , , , , , , , , , , , , ",
", , , , , , , , < + o +   | %.%.%.%.|   X # + + + + + + + + + + + + + + + + + + + + + o & > , , , , , , , , , , , , , , , , , , ",
", , , , , , , , p . # . * %.%.%.%.X.  o # + + + + + + + + + + + + + + + + + + + + + + # . p , , , , , , , , , , , , , , , , , , ",
", , , , , , , , & o +   ..%.%.%.#.o X # + + + + + + + + + + + + + + + + + + + + + + + + o $ > , , , , , , , , , , , , , , , , , ",
", , , , , , , 5 O + o % %.%.%.%.l   # + + + + + + + + + + + + + + + + + + + + + + + + + + O 5 , , , , , , , , , , , , , , , , , ",
", , , , , , , a X +   z %.%.%.@.o O + + + + + + + + + + + + + + + + + + + + + + + + + + # X a , , , , , , , , , , , , , , , , , ",
", , , , , , , e o +    .%.%.%.{   + + + + + + + + + + + + + + + + + + + + + + + + + + + + o e , , , , , , , , , , , , , , , , , ",
", , , , , , , q o + o O.%.%.%.j   + + + + + + + + + + + + + + + + + + + + + + + + + + + + o q > , , , , , , , , , , , , , , , , ",
", , , , , , , & O o + #.%.%.%.* X + + + + + + + + + + + + + + + + + + + + + + + + + + + + O & > , , , , , , , , , , , , , , , , ",
", , , , , , , @ + o % $.%.%.$.% o + + + + + + + + + + + + + + + + + + + + + + + + + + + + + @ > , , , , , , , , , x , , , , , , ",
", , , , , , , @ + o % $.%.%.$.% o + + + + + + + + + + + + + + + + + + + + + + + + + + + + + @ > , , , , x x < > , < < , , , , , ",
", , , , , , , & O O # $.%.%.%.h X + + + + + + + + + + + + + + + + + + + + + + + + + + + + O & , , , , , , x < < , : < , , x , , ",
", , , , , > > q o + .  .%.%.+.O O + + + + + + + + + + + + + + + + + + + + + + + + + + + + O q , , , , , , : < < < : , < < : , , ",
", , , , , , , e o + o + [ } # o # + + + + + + + + + + + + + + + + + + + + + + + + + + + + o e , , , , , x < : < < , , < < : , , ",
", , , , , , x g X + # O     o # + + + + + + + + + + + + + + + + + + + + + + + + + + + + + o a , , , , , : x < : < , , : : , , , ",
", , , , , , , C O + + + + + + + + + + + + + + + + + + + + + + + + + + + + + + + + + + + + O 5 , , , , , , : < : : , , , , , , , ",
", , , , , , , : $ o + + + + + + + + + + + + + + + + + + + + + + + + + + + + + + + + + + o & > > , , , , , , , , , , , , , , , , ",
", , , , , , x < i . + + + + + + + + + + + + + + + + + + + + + + + + + + + + + + + + + # . d , , , , , , , , , , , , , , , , , , ",
", , , , , , : < 1 + O + + + + + + + + + + + + + + + + + + + + + + + + + + + + + + + + O + < , , , , , , , , , , , , , , , , , , ",
", , , , , , , : x t   # + + + + + + + + + + + + + + + + + + + + + + + + + + + + + + #   s > , , , , , , , , , , , , , , , , , , ",
", , , , , , , , > , + o + + + + + + + + + + + + + + + + + + + + + + + + + + + + + + o + , , , , , , , , , , , , , , , , , , , , ",
", , , , , , , , , , Z   O # + + + + + + + + + + + + + + + + + + + + + + + + + + + O   Z , , , , , , , , , , , , , , , , , , , , ",
", , , , , , , , , , , d . + + + + + + + + + + + + + + + + + + + + + + + + + + + +   d , , , , , , , , , , , , , , , , , , , , , ",
", , , , , , , , , , , , w . + + + + + + + + + + + + + + + + + + + + + + + + # + . e , , , , , , , , , , , , , , , , , , , , , , ",
", , , , , , , , , , , > > 6 o O + + + + + + + + + + + + # + + + + + + + + # O X 6 , , , , , , , , , , , , , , , , , , , , , , , ",
", , , , , , , , , , , , , , s o O + + + + + + + + + + + + + + + + + + + + O o p , , , , , , , , , , , , , , , , , , , , , , , , ",
", , , , , , , , , , , , , , , u + o O # + + + + + + + + + + + + + + # O X @ Z , , , , , , , , , , , , , , , , , , , , , , , , , ",
", , , , , , , , , , , , , , , , , 0 # o O + + + + + + + + + + + + O o + 0 , x < < , , , x x , , , , , , , , , , , , , , , , , , ",
", , , , , , , , , , , , , , , , , > 1 8 $ O o O O O + # O O o O O $ 8 1 , > : < < , , < x , , , , , , , , , , , , , , , , , , , ",
", , , , , , , , , , , , , , , , , , , , , 4 y 9 7 $ @ + $ q 9 y 4 , , , , , , : : , < < < , , , , , , , , , , , , , , , , , , , ",
", , , , , , , , , , , , , , , , , , , , , , , , , , , , , , > , , , , , , , , , , , < < : , , , , , , , , , , , , , , , , , , , ",
", , , , , , , , , , , , , , , , , , , , , , , , , , , , , , , , , , , , , , , , , , : : , , , , , , , , , , , , , , , , , , , , ",
", , , , , , , , , , , , , , , , , , , , , , , , , , , , , , , , , , , , , , , , , , , , , , , , , , , , , , , , , , , , , , , , "
};
