/* XPM */
static char *result[] = {
/* columns rows colors chars-per-pixel */
"64 64 111 2 ",
"   c #454D00",
".  c #4C5000",
"X  c #4D5100",
"o  c #4E5200",
"O  c #4F5300",
"+  c #505400",
"@  c #515500",
"#  c #525600",
"$  c #525700",
"%  c #535700",
"&  c #525B00",
"*  c #545800",
"=  c #545900",
"-  c #555900",
";  c #555A00",
":  c #565A00",
">  c #565B00",
",  c #575B00",
"<  c #535C00",
"1  c #545D00",
"2  c #575C00",
"3  c #555E00",
"4  c #585C00",
"5  c #585D00",
"6  c #595D00",
"7  c #595E00",
"8  c #5A5E00",
"9  c #5A5F00",
"0  c #5B5F00",
"q  c #595D02",
"w  c #5A5E02",
"e  c #555908",
"r  c #5B5F08",
"t  c #5B6000",
"y  c #596200",
"u  c #596300",
"i  c #5A6300",
"p  c #5C6000",
"a  c #5C6100",
"s  c #5D6100",
"d  c #5D6200",
"f  c #5E6200",
"g  c #5E6300",
"h  c #5F6300",
"j  c #5C6002",
"k  c #5C6500",
"l  c #5F6400",
"z  c #5D6700",
"x  c #5E6208",
"c  c #606400",
"v  c #606500",
"b  c #616500",
"n  c #616600",
"m  c #626600",
"M  c #626700",
"N  c #636700",
"B  c #6D6500",
"V  c #6E6600",
"C  c #636800",
"Z  c #606A00",
"A  c #616B00",
"S  c #626B00",
"D  c #646800",
"F  c #646900",
"G  c #656900",
"H  c #656A00",
"J  c #666A00",
"K  c #666B00",
"L  c #676B00",
"P  c #626C00",
"I  c #636D00",
"U  c #676C00",
"Y  c #686D00",
"T  c #696D00",
"R  c #696E00",
"E  c #6A6E00",
"W  c #6A6F00",
"Q  c #6B7000",
"!  c #6C7000",
"~  c #6C7100",
"^  c #6D7200",
"/  c #6E7200",
"(  c #6E7300",
")  c #6C7102",
"_  c #6F7400",
"`  c #707500",
"'  c #707600",
"]  c #717600",
"[  c #727700",
"{  c #717504",
"}  c #7E7000",
"|  c #7F7000",
" . c #727800",
".. c #737801",
"X. c #747A00",
"o. c #757B00",
"O. c #767C00",
"+. c #8D7900",
"@. c #7B8100",
"#. c #7D8300",
"$. c #AE8D00",
"%. c #AF8E00",
"&. c #CCA100",
"*. c #CFA300",
"=. c #DFAE00",
"-. c #E0AF00",
";. c #EDB800",
":. c #EFB800",
">. c #EEB900",
",. c #F9BF00",
"<. c #FFCE00",
/* pixels */
"' ' ' ' ' ' ' ' ' ' ' ' ' ' ' ' ' ' ' ' ' ' ' ' ' ' ' ' ' ' ' ' ' ' ' ' ' ' ' ' ' ' ' ' ' ' ' ' ' ' ' ' ' ' ' ' ' ' ' ' ' ' ' ' ",
"' ' ' ' ' ' ' ' ' ' ' ' ' ' ' ' ' ' ' ' ' ' ' ' ' ' ' ' ' ' ' ' ' ' ' ' ' ' ' ' ' ' ' ' ' ' ' ' ' ' ' ' ' ' ' ' ' ' ' ' ' ' ' ' ",
"' ' ' ' ' ' ' ' ' ' ' ' ' ' ' ` ` _ _ _ _ _ _ _ ` ` ' ' ' ' ' ' ' ' ' ' ' ' ' ' ' ' ' ' ' ' ' ' ' ' ' ' ' ' ' ' ' ' ' ' ' ' ' ' ",
"' ' ' ' ' ' ' ' ' ' ' ' ' ` _ ( ^ ~ ! Q Q Q ! ~ ^ ( ( _ ` ' ' ' ' ' ' ' ' ' ' ' ' ' ' ' ' ' ' ' ' ' ' ' ' ' ' ' ' ' ' ' ' ' ' ' ",
"' ' ' ' ' ' ' ' ' ' ' ` _ ( ~ W T U K J H J K U Y R Q ^ _ ` ' ' ' ' ' ' ' ' ' ' ' ' ' ' ' ' ' ' ' ' ' ' ' ' ' ' ' ' ' ' ' ' ' ' ",
"' ' ' ' ' ' ' ' ' ' ` _ ^ W U F m c h g f f h l n D L R ~ ( ` ' ' ' ' ' ' ' ' ' ' ' ' ' ' ' ' ' ' ' ' ' ' ' ' ' ' ' ' ' ' ' ' ' ",
"' ' ' ' ' ' ' ' ' ` _ ^ R H n s 8 , ; = * * - : 5 p l D Y Q ( _ ' ' ' ' ' ' ' ' ' ' ' ' ' ' ' ' ' ' ' ' ' ' ' ' ' ' ' ' ' ' ' ' ",
"' ' ' ' ' ' ' ' ` _ ^ R F l 8 ; # O X . . . X o + * 4 d M U Q ( ` ' ' ' ' ' ' ' #.' ' ' ' ' ' ' ' ' ' ' ' ' ' ' ' ' ' ' ' ' ' ' ",
"' ' ' ' ' ' ' ' _ ^ R F h 6 % o *.<.<.<.<.<.<.<.>.| @ : p m U ! ( ` ' ' ' ' ' ' O.O.' ' ' ' ' ' ' ' ' ' ' ' ' ' ' ' ' ' ' ' ' ' ",
"' ' ' ' ' ' ' ` ( W H l 6 # V =.<.<.<.<.<.<.<.<.<.<.+.+ : a C T ^ _ ' ' #.#.O.' I O.' ' ' ' ' ' ' ' ' ' ' ' ' ' ' ' ' ' ' ' ' ' ",
"' ' ' ' ' ' ' _ ~ U n 8 % B ,.<.<.<.<.<.<.<.<.<.<.<.<.$.+ 2 h J Q ( ` ' ' #.O.O.I I ' #.#.O.' ' ' ' ' ' ' ' ' ' ' ' ' ' ' ' ' ' ",
"' ' ' ' ' ' ' ( W F s ; o =.<.<.<.<.<.<.<.<.<.<.<.<.<.<.} % 0 N R ^ o.#.' I o.o._ S X.X.@._ _ ` ` ' ' ' ' ' ' ' ' ' ' ' ' ' ' ' ",
"' ' ' ' ' ' ' ^ T m 8 # *.<.<.<.<.<.<.<.<.<.<.<.<.<.<.<.<.+ 4 b U ~ _ #.o.X.Z  .~ ] ] ] Q ! ~ ^ ( ( _ ` ' ' ' ' ' ' ' ' ' ' ' ' ",
"' ' ' ' ' ' ' ~ U c , O <.<.<.<.<.<.<.<.<.<.<.<.<.<.<.<.<.o : h L ! ( A  .[ W k i Q Q y J K U Y R Q ^ _ ` ' ' ' ' ' ' ' ' ' ' ' ",
"' ' ' ' ' ' ' ! K h ; X <.<.<.<.<.<.<.<.<.<.<.<.<.<.<.<.<.X = g H Q ^ ^ z ^ F m 1 < & f f h l n D L R ~ ( ` ' ' ' ' ' ' ' ' ' ' ",
"' ' ' ' ' ' ' Q J g = . <.<.<.<.<.<.<.<.<.<.<.<.<.<.<.<.<.. * d F R Q R H 3 s g j ; = * * - : 5 p l D Y Q ( _ ' ' ' ' ' ' ' ' ' ",
"' ' ' ' ' ' ' Q H f * . <.<.<.<.<.<.<.<.<.<.<.<.<.<.<.<.<.. * s D U U F l 8 ; r   X . . . X o + * 4 d M U Q ( ` ' ' ' ' ' ' ' ' ",
"' ' ' ' ' ' ' Q J f * . <.<.<.<.<.<.<.<.<.<.<.<.<.<.<.<.<.. * p m F N h 6 % o &.<.<.<.<.<.<.<.>.| @ : p m U ! ( ` ' ' ' ' ' ' ' ",
"' ' ' ' ' ' ' ! K h - X <.<.<.<.<.<.<.<.<.<.<.<.<.<.<.<.<.. * t c v f 6 # V =.<.<.<.<.<.<.<.<.<.<.+.+ : a C T ^ _ ' ' ' ' ' ' ' ",
"' ' ' ' ' ' ' ~ U l : o <.<.<.<.<.<.<.<.<.<.<.<.<.<.<.<.<.X * 9 d a 6 % B ,.<.<.<.<.<.<.<.<.<.<.<.<.$.+ 2 h J Q ( ` ' ' ' ' ' ' ",
"' ' ' ' ' ' ' ^ Y n 5 + ;.<.<.<.<.<.<.<.<.<.<.<.<.<.<.<.<.o = 9 p 6 * o =.<.<.<.<.<.<.<.<.<.<.<.<.<.<.} % 0 N R ^ ` ' ' ' ' ' ' ",
"' ' ' ' ' ' ' ( R D p * | <.<.<.<.<.<.<.<.<.<.<.<.<.<.<.-.@ , 0 9 , @ *.<.<.<.<.<.<.<.<.<.<.<.<.<.<.<.<.+ 4 b U ~ _ ' ' ' ' ' ' ",
"' ' ' ' ' ' ' ( Q L l 4 @ +.<.<.<.<.<.<.<.<.<.<.<.<.<.;.o * 6 t 8 = O <.<.<.<.<.<.<.<.<.<.<.<.<.<.<.<.<.o : h L ~ _ ' ' ' ' ' ' ",
"' ' ' ' ' ' ' _ ^ R D d : + %.<.<.<.<.<.<.<.<.<.<.<.:.X % 6 a d 9 * X <.<.<.<.<.<.<.<.<.<.<.<.<.<.<.<.<.X = g J ! _ ' ' ' ' ' ' ",
"' ' ' ' ' ' ' ` _ ~ Y M p : + } <.<.<.<.<.<.<.<.<.-.o % 8 g v c t * . <.<.<.<.<.<.<.<.<.<.<.<.<.<.<.<.<.. * f H Q _ ' ' ' ' ' ' ",
"' ' ' ' ' ' ' ' ` ( Q U m a 2 % + o X . . . . X O # ; 8 c C F m p * . <.<.<.<.<.<.<.<.<.<.<.<.<.<.<.<.<.. * f H Q _ ' ' ' ' ' ' ",
"' ' ' ' ' ' ' ' ' ` ( Q U C h 0 4 : = * * * = ; , 8 s n H U U F s * . <.<.<.<.<.<.<.<.<.<.<.<.<.<.<.<.<.. * f H Q _ ' ' ' ' ' ' ",
"' ' ' ' ' ' ' ' ' ' _ ( ! T J N b h g f f f g h c m F U W ! R H h - X <.<.<.<.<.<.<.<.<.<.<.<.<.<.<.<.<.. = g J Q _ ' ' ' ' ' ' ",
"' ' ' ' ' ' ' ' ' ' ' ` ( ^ Q R U L J H H H J K U Y W ~ ( ^ Q U l : o <.<.<.<.<.<.<.<.<.<.<.<.<.<.<.<.<.X ; h K ! _ ' ' ' ' ' ' ",
"' ' ' ' ' ' ' ' ' ' ' ' ` _ ( ^ ~ ~ ! Q Q Q Q ! ~ ^ ( _ ` _ ^ Y n 5 + ;.<.<.<.<.<.<.<.<.<.<.<.<.<.<.<.<.O , c U ~ _ ' ' ' ' ' ' ",
"' ' ' ' ' ' ' ' ' ' ' ' ' ' ` ` _ _ _ _ _ _ _ _ _ ` ` ' ' ` ( R D p * | <.<.<.<.<.<.<.<.<.<.<.<.<.<.<.-.# 8 m Y ^ ` ' ' ' ' ' ' ",
"' ' ' ' ' ' ' ' ' ' ' ' ' ' ' ' ' ' ' ' ' ' ' ' ' ' ' ' ' ' ( Q L l 4 @ +.<.<.<.<.<.<.<.<.<.<.<.<.<.;.o ; s F W ( ` ' ' ' ' ' ' ",
"' ' ' ' ' ' ' ' ' ' ' ' ' ' ' ' ' ' ' ' ' ' ' ' ' ' ' ' ' ' _ ^ R D d : + %.<.<.<.<.<.<.<.<.<.<.<.:.X % 8 n U ~ _ ' ' ' ' ' ' ' ",
"' ' ' ' ' ' ' ' ' ' ' ' ' ' ' ' ' ' ' ' ' ' ' ' ' ' ' ' ' ' ` _ ~ Y M p : + } <.<.<.<.<.<.<.<.<.-.o % 8 c H W ( ` ' ' ' ' ' ' ' ",
"' ' ' ' ' ' ' ' ' ' ' ' ' ' ' ' ' ' ' ' ' ' ' ' ' ' ' ' ' ' ` _ ^ W J b 0 : @ O . . . . . . X O # ; 8 c G R ^ _ ' ' ' ' ' ' ' ' ",
"' ' ' ' ' ' ' ' ' ' ' ' ' ' ' ' ' ' ' ' ' ' ' ' ' ' ' ' ' ' ` ( ^ W U M g 8 : * # # # $ % * - , 8 s n H R ^ _ ` ' ' ' ' ' ' ' ' ",
"' ' ' ' ' ' ' ' ' ' ' ' ' ' ' ' ' ' ' ' ' ' ' ' ' ' ' ' ` _ ( ~ W U F n f 0 6 2 , , 2 6 0 a f l m F U W ^ _ ` ' ' ' ' ' ' ' ' ' ",
"' ' ' ' ' ' ' ' ' ' ' ' ' ' ' ' ' ' ' ' ' ' ' ' ' ' ' ` _ ^ W U F n h a 0 6 , > > , 7 p h n D J Y W ~ ( _ ` ' ' ' ' ' ' ' ' ' ' ",
"' ' ' ' ' ' ' ' ' ' ' ' ' ' ' ' ' ' ' ' ' ' ' ' ' ' ` _ ^ R H n s 8 , - % $ @ # $ * , 9 h M K R ! ^ _ ` ' ' ' ' ' ' ' ' ' ' ' ' ",
"' ' ' ' ' ' ' ' ' ' ' ' ' ' ' ' ' ' ' ' ' ' ' ' ' ` _ ^ R F l 8 ; # O X . . . . X O # : p b J R ^ _ ` ' ' ' ' ' ' ' ' ' ' ' ' ' ",
"' ' ' ' ' ' ' ' ' ' ' ' ' ' ' ' ' ' ' ' ' ' ' ' ' _ ^ R F h 6 % o *.<.<.<.<.<.<.<.>.| @ : p m U ! ( ` ' ' ' ' ' ' #.' ' ' ' ' ' ",
"' ' ' ' ' ' ' ' ' ' ' ' ' ' ' ' ' ' ' ' ' ' ' ' ` ( W H l 6 # V =.<.<.<.<.<.<.<.<.<.<.+.+ : a C T ^ _ ' #.#.O.' ' O.O.' ' ' ' ' ",
"' ' ' ' ' ' ' ' ' ' ' ' ' ' ' ' ' ' ' ' ' ' ' ' _ ~ U n 8 % B ,.<.<.<.<.<.<.<.<.<.<.<.<.$.+ 2 h J Q ( ` ' #.O.O.' I O.' ' #.' ' ",
"' ' ' ' ' ' ' ' ' ' ' ' ' ' ' ' ' ' ' ' ' ' ' ` ( W F s ; o =.<.<.<.<.<.<.<.<.<.<.<.<.<.<.} % 0 N R ^ ` ' I O.O.O.I ' O.O.I ' ' ",
"' ' ' ' ' ' ' ' ' ' ' #.' ' ' ' ' ' ' ' ' ' ' ` ^ T m 8 # *.<.<.<.<.<.<.<.<.<.<.<.<.<.<.<.<.+ 4 b U ~ _ #.O.I O.O.' ' O.O.I ' ' ",
"' ' ' ' ' ' #.#.O.' ' O.O.' ' ' ' ' ' ' ' ' ' _ ~ U c , O <.<.<.<.<.<.<.<.<.<.<.<.<.<.<.<.<.o : h L ~ _ I O.O.I O.' ' I I ' ' ' ",
"' ' ' ' ' ' ' #.O.O.' I O.' ' #.' ' ' ' ' ' ' _ ! K h ; X <.<.<.<.<.<.<.<.<.<.<.<.<.<.<.<.<.X = g J ! _ ' I O.I I ' ' ' ' ' ' ' ",
"' ' ' ' ' ' ' I O.O.O.I ' O.O.I ' ' ' ' ' ' ' _ Q J g = . <.<.<.<.<.<.<.<.<.<.<.<.<.<.<.<.<.. * f H Q _ ' ' ' ' ' ' ' ' ' ' ' ' ",
"' ' ' ' ' ' #.O.I O.O.' ' O.O.I ' ' ' ' ' ' ' _ Q H f * . <.<.<.<.<.<.<.<.<.<.<.<.<.<.<.<.<.. * f H Q _ ' ' ' ' ' ' ' ' ' ' ' ' ",
"' ' ' ' ' ' I O.O.I O.' ' I I ' ' ' ' ' ' ' ' _ Q J f * . <.<.<.<.<.<.<.<.<.<.<.<.<.<.<.<.<.. * f H Q _ ' ' ' ' ' ' ' ' ' ' ' ' ",
"' ' ' ' ' ' ' I O.I I ' ' ' ' ' ' ' ' ' ' ' ' _ ! K h - X <.<.<.<.<.<.<.<.<.<.<.<.<.<.<.<.<.. = g J Q _ ' ' ' ' ' ' ' ' ' ' ' ' ",
"' ' ' ' ' ' ' ' ' ' ' ' ' ' ' ' ' ' ' ' ' ' ' _ ~ U l : o <.<.<.<.<.<.<.<.<.<.<.<.<.<.<.<.<.X ; h K ! _ ' ' ' ' ' ' ' ' ' ' ' ' ",
"' ' ' ' ' ' ' ' ' ' ' ' ' ' ' ' ' ' ' ' ' ' ' ` ^ Y n 5 + ;.<.<.<.<.<.<.<.<.<.<.<.<.<.<.<.<.O , c U ~ _ ' ' ' ' ' ' ' ' ' ' ' ' ",
"' ' ' ' ' ' ' ' ' ' ' ' ' ' ' ' ' ' ' ' ' ' ' ` ( R D p * | <.<.<.<.<.<.<.<.<.<.<.<.<.<.<.-.# 8 m Y ^ ` ' ' ' ' ' ' ' ' ' ' ' ' ",
"' ' ' ' ' ' ' ' ' ' ' ' ' ' ' ' ' ' ' ' ' ' ' ' ( Q L l 4 @ +.<.<.<.<.<.<.<.<.<.<.<.<.<.;.o ; s F W ( ` ' ' ' ' ' ' ' ' ' ' ' ' ",
"' ' ' ' ' ' ' ' ' ' ' ' ' ' ' ' ' ' ' ' ' ' ' ' _ ^ R D d : + %.<.<.<.<.<.<.<.<.<.<.<.:.X % 8 n U ~ _ ' ' ' ' ' ' ' ' ' ' ' ' ' ",
"' ' ' ' ' ' ' ' ' ' ' ' ' ' ' ' ' ' ' ' ' ' ' ' ` _ ~ Y M p : + } <.<.<.<.<.<.<.<.<.-.o % 8 c H W ( ` ' ' ' ' ' ' ' ' ' ' ' ' ' ",
"' ' ' ' ' ' ' ' ' ' ' ' ' ' ' ' ' ' ' ' ' ' ' ' ' ` ( Q U m a 2 % + o X . e e . X O # ; 8 c G R ^ _ ' ' ' ' ' ' ' ' ' ' ' ' ' ' ",
"' ' ' ' ' ' ' ' ' ' ' ' ' ' ' ' ' ' ' ' ' ' ' ' ' ' ` ( Q U C h 0 4 : = * * x q w , 8 s ) { R ^ _ ` ' ' ' ' ' ' ' ' ' ' ' ' ' ' ",
"' ' ' ' ' ' ' ' ' ' ' ' ' ' ' ' ' ' ' ' ' ' ' ' ' ' ' _ ( ! T J N b h g f f & C D c m E ..W ^ _ ` ' ' ' ' ' ' ' ' ' ' ' ' ' ' ' ",
"' ' ' ' ' ' ' ' ' ' ' ' ' ' ' ' ' ' ' ' ' ' ' ' ' ' ' ' ` ( ^ Q R U L J H H H y u U / _ [ ( _ ` ' ' ' ' ' ' ' ' ' ' ' ' ' ' ' ' ",
"' ' ' ' ' ' ' ' ' ' ' ' ' ' ' ' ' ' ' ' ' ' ' ' ' ' ' ' ' ` _ ( ^ ~ ~ ! Q Q Q Q ! ~  . .A ` ' ' ' ' ' ' ' ' ' ' ' ' ' ' ' ' ' ' ",
"' ' ' ' ' ' ' ' ' ' ' ' ' ' ' ' ' ' ' ' ' ' ' ' ' ' ' ' ' ' ' ` ` _ _ _ _ _ _ _ _ _ P P ' ' ' ' ' ' ' ' ' ' ' ' ' ' ' ' ' ' ' ' ",
"' ' ' ' ' ' ' ' ' ' ' ' ' ' ' ' ' ' ' ' ' ' ' ' ' ' ' ' ' ' ' ' ' ' ' ' ' ' ' ' ' ' ' ' ' ' ' ' ' ' ' ' ' ' ' ' ' ' ' ' ' ' ' ' "
};
